<svg width="16" height="20" viewBox="0 0 16 20" fill="none" xmlns="http://www.w3.org/2000/svg">
<path d="M15.8972 12.7704C15.8972 16.998 13.2961 18.853 11.286 19.478C10.8568 19.6111 10.5756 19.1114 10.832 18.7428C11.7063 17.4859 12.7178 15.5683 12.7178 13.7649C12.7178 11.8265 11.0843 9.53826 9.8086 8.12639C9.51748 7.80447 9.00877 8.01709 8.99287 8.45228C8.94021 9.89297 8.71268 11.8185 7.73301 13.3288C7.69831 13.3852 7.65043 13.4323 7.59348 13.4662C7.53653 13.5 7.47222 13.5196 7.40607 13.5231C7.33992 13.5266 7.2739 13.514 7.21368 13.4864C7.15347 13.4588 7.10085 13.417 7.06036 13.3645C6.75434 12.977 6.44832 12.4991 6.1423 12.1206C5.97736 11.9179 5.67929 11.9149 5.48951 12.0947C4.74731 12.7972 3.70902 13.8921 3.70902 15.2543C3.70902 16.1783 4.06671 17.1471 4.4711 17.927C4.69366 18.3543 4.29822 18.8709 3.87098 18.6464C2.09943 17.7184 0 15.8346 0 12.7704C0 9.64457 4.28232 5.31357 5.91775 1.22202C6.17608 0.576195 6.97094 0.273153 7.52436 0.69443C10.8727 3.24594 15.8972 8.17805 15.8972 12.7704Z" fill="#808080"/>
</svg>
