<svg width="20" height="11" viewBox="0 0 20 11" fill="none" xmlns="http://www.w3.org/2000/svg">
<path d="M20 7.87003V3.75003C20 2.79007 20 2.31009 19.848 1.93208C19.7475 1.68198 19.6001 1.45473 19.4143 1.26333C19.2284 1.07193 19.0078 0.920122 18.765 0.816594C18.398 0.660034 17.932 0.660034 17 0.660034C16.068 0.660034 15.602 0.660034 15.235 0.816594C14.9922 0.920122 14.7716 1.07193 14.5857 1.26333C14.3999 1.45473 14.2525 1.68198 14.152 1.93208C14 2.31009 14 3.30507 14 4.26503H6C6 3.30507 6 2.31009 5.848 1.93208C5.74749 1.68198 5.6001 1.45473 5.41428 1.26333C5.22845 1.07193 5.00782 0.920122 4.765 0.816594C4.398 0.660034 3.932 0.660034 3 0.660034C2.068 0.660034 1.602 0.660034 1.235 0.816594C0.992181 0.920122 0.771551 1.07193 0.585723 1.26333C0.399896 1.45473 0.252513 1.68198 0.152 1.93208C-4.47035e-08 2.31009 0 2.79007 0 3.75003V7.87003C0 8.83 -4.47035e-08 9.30998 0.152 9.68799C0.252513 9.93809 0.399896 10.1653 0.585723 10.3567C0.771551 10.5481 0.992181 10.6999 1.235 10.8035C1.602 10.96 2.068 10.96 3 10.96C3.932 10.96 4.398 10.96 4.765 10.8035C5.00782 10.6999 5.22845 10.5481 5.41428 10.3567C5.6001 10.1653 5.74749 9.93809 5.848 9.68799C6 9.30998 6 8.31499 6 7.35503H14C14 8.31499 14 9.30998 14.152 9.68799C14.2525 9.93809 14.3999 10.1653 14.5857 10.3567C14.7716 10.5481 14.9922 10.6999 15.235 10.8035C15.602 10.96 16.068 10.96 17 10.96C17.932 10.96 18.398 10.96 18.765 10.8035C19.0078 10.6999 19.2284 10.5481 19.4143 10.3567C19.6001 10.1653 19.7475 9.93809 19.848 9.68799C20 9.30998 20 8.83 20 7.87003Z" fill="#808080"/>
</svg>
